<?xml version="1.0" encoding="us-ascii" standalone="no"?><svg xmlns="http://www.w3.org/2000/svg" xmlns:xlink="http://www.w3.org/1999/xlink" contentStyleType="text/css" height="409px" preserveAspectRatio="none" style="width:512px;height:409px;background:#FFFFFF;" version="1.1" viewBox="0 0 512 409" width="512px" zoomAndPan="magnify"><defs/><g><rect fill="#FEECCD" height="316.8398" style="stroke:#7A003C;stroke-width:1.0;" width="10" x="85" y="67.7988"/><rect fill="#FEECCD" height="71.666" style="stroke:#7A003C;stroke-width:1.0;" width="10" x="267" y="107.1094"/><rect fill="#FEECCD" height="162.5527" style="stroke:#7A003C;stroke-width:1.0;" width="10" x="267" y="208.0859"/><rect fill="#FEECCD" height="16.1777" style="stroke:#7A003C;stroke-width:1.0;" width="10" x="415.5" y="148.5977"/><rect fill="#FEECCD" height="14" style="stroke:#7A003C;stroke-width:1.0;" width="10" x="415.5" y="261.707"/><rect fill="#FEECCD" height="29.3105" style="stroke:#7A003C;stroke-width:1.0;" width="10" x="415.5" y="312.0176"/><rect fill="none" height="60.6211" rx="5" ry="5" style="stroke:#000000;stroke-width:1.5;" width="307" x="199" y="223.0859"/><line style="stroke:#7A003C;stroke-width:0.5;stroke-dasharray:5.0,5.0;" x1="90" x2="90" y1="36.4883" y2="402.6387"/><line style="stroke:#7A003C;stroke-width:0.5;stroke-dasharray:5.0,5.0;" x1="272" x2="272" y1="106.543" y2="402.6387"/><line style="stroke:#7A003C;stroke-width:0.5;stroke-dasharray:5.0,5.0;" x1="420" x2="420" y1="148.0313" y2="402.6387"/><rect fill="#FEECCD" height="30.4883" rx="5" ry="5" style="stroke:#7A003C;stroke-width:0.5;" width="62" x="59" y="5"/><text fill="#000000" font-family="sans-serif" font-size="14" lengthAdjust="spacing" textLength="48" x="66" y="25.5352">_: Main</text><rect fill="#FEECCD" height="316.8398" style="stroke:#7A003C;stroke-width:1.0;" width="10" x="85" y="67.7988"/><rect fill="#FEECCD" height="71.666" style="stroke:#7A003C;stroke-width:1.0;" width="10" x="267" y="107.1094"/><rect fill="#FEECCD" height="162.5527" style="stroke:#7A003C;stroke-width:1.0;" width="10" x="267" y="208.0859"/><rect fill="#FEECCD" height="16.1777" style="stroke:#7A003C;stroke-width:1.0;" width="10" x="415.5" y="148.5977"/><rect fill="#FEECCD" height="14" style="stroke:#7A003C;stroke-width:1.0;" width="10" x="415.5" y="261.707"/><rect fill="#FEECCD" height="29.3105" style="stroke:#7A003C;stroke-width:1.0;" width="10" x="415.5" y="312.0176"/><polygon fill="#7A003C" points="73,63.7988,83,67.7988,73,71.7988,77,67.7988" style="stroke:#7A003C;stroke-width:1.0;"/><line style="stroke:#7A003C;stroke-width:1.0;" x1="0" x2="79" y1="67.7988" y2="67.7988"/><text fill="#000000" font-family="sans-serif" font-size="13" lengthAdjust="spacing" textLength="66" x="7" y="63.0566">main(args)</text><polygon fill="#7A003C" points="197,93.1094,207,97.1094,197,101.1094,201,97.1094" style="stroke:#7A003C;stroke-width:1.0;"/><line style="stroke:#7A003C;stroke-width:1.0;" x1="95" x2="203" y1="97.1094" y2="97.1094"/><text fill="#000000" font-family="sans-serif" font-size="13" lengthAdjust="spacing" textLength="90" x="102" y="92.3672">this(str1, str2)</text><rect fill="#FEECCD" height="30.4883" rx="5" ry="5" style="stroke:#7A003C;stroke-width:0.5;" width="126" x="209" y="75.7988"/><text fill="#000000" font-family="sans-serif" font-size="14" lengthAdjust="spacing" textLength="112" x="216" y="96.334">theMatch: Match</text><polygon fill="#7A003C" points="333,134.5977,343,138.5977,333,142.5977,337,138.5977" style="stroke:#7A003C;stroke-width:1.0;"/><line style="stroke:#7A003C;stroke-width:1.0;" x1="277" x2="339" y1="138.5977" y2="138.5977"/><text fill="#000000" font-family="sans-serif" font-size="13" lengthAdjust="spacing" textLength="32" x="284" y="133.8555">this()</text><rect fill="#FEECCD" height="30.4883" rx="5" ry="5" style="stroke:#7A003C;stroke-width:0.5;" width="151" x="345" y="117.2871"/><text fill="#000000" font-family="sans-serif" font-size="14" lengthAdjust="spacing" textLength="137" x="352" y="137.8223">scorer: ScoreSystem</text><polygon fill="#7A003C" points="288,160.7754,278,164.7754,288,168.7754,284,164.7754" style="stroke:#7A003C;stroke-width:1.0;"/><line style="stroke:#7A003C;stroke-width:1.0;stroke-dasharray:2.0,2.0;" x1="282" x2="419.5" y1="164.7754" y2="164.7754"/><polygon fill="#7A003C" points="106,174.7754,96,178.7754,106,182.7754,102,178.7754" style="stroke:#7A003C;stroke-width:1.0;"/><line style="stroke:#7A003C;stroke-width:1.0;stroke-dasharray:2.0,2.0;" x1="100" x2="271" y1="178.7754" y2="178.7754"/><polygon fill="#7A003C" points="255,204.0859,265,208.0859,255,212.0859,259,208.0859" style="stroke:#7A003C;stroke-width:1.0;"/><line style="stroke:#7A003C;stroke-width:1.0;" x1="95" x2="261" y1="208.0859" y2="208.0859"/><text fill="#000000" font-family="sans-serif" font-size="13" lengthAdjust="spacing" textLength="34" x="102" y="203.3438">play()</text><path d="M204,223.0859 L273,223.0859 L273,230.3965 L263,240.3965 L199,240.3965 L199,228.0859 A5,5 0 0 1 204,223.0859 " fill="#EEEEEE" style="stroke:#000000;stroke-width:1.5;"/><rect fill="none" height="60.6211" rx="5" ry="5" style="stroke:#000000;stroke-width:1.5;" width="307" x="199" y="223.0859"/><text fill="#000000" font-family="sans-serif" font-size="13" font-weight="bold" lengthAdjust="spacing" textLength="29" x="214" y="236.6543">loop</text><text fill="#000000" font-family="sans-serif" font-size="11" font-weight="bold" lengthAdjust="spacing" textLength="98" x="288" y="235.7207">[!scorer.isEnded?]</text><polygon fill="#7A003C" points="403.5,257.707,413.5,261.707,403.5,265.707,407.5,261.707" style="stroke:#7A003C;stroke-width:1.0;"/><line style="stroke:#7A003C;stroke-width:1.0;" x1="277" x2="409.5" y1="261.707" y2="261.707"/><text fill="#000000" font-family="sans-serif" font-size="13" lengthAdjust="spacing" textLength="92" x="284" y="256.9648">score(p1 || p2)</text><polygon fill="#7A003C" points="288,271.707,278,275.707,288,279.707,284,275.707" style="stroke:#7A003C;stroke-width:1.0;"/><line style="stroke:#7A003C;stroke-width:1.0;stroke-dasharray:2.0,2.0;" x1="282" x2="419.5" y1="275.707" y2="275.707"/><polygon fill="#7A003C" points="403.5,308.0176,413.5,312.0176,403.5,316.0176,407.5,312.0176" style="stroke:#7A003C;stroke-width:1.0;"/><line style="stroke:#7A003C;stroke-width:1.0;" x1="277" x2="409.5" y1="312.0176" y2="312.0176"/><text fill="#000000" font-family="sans-serif" font-size="13" lengthAdjust="spacing" textLength="50" x="284" y="307.2754">winner()</text><polygon fill="#7A003C" points="288,337.3281,278,341.3281,288,345.3281,284,341.3281" style="stroke:#7A003C;stroke-width:1.0;"/><line style="stroke:#7A003C;stroke-width:1.0;stroke-dasharray:2.0,2.0;" x1="282" x2="419.5" y1="341.3281" y2="341.3281"/><text fill="#000000" font-family="sans-serif" font-size="13" lengthAdjust="spacing" textLength="10" x="294" y="336.5859">w</text><polygon fill="#7A003C" points="106,366.6387,96,370.6387,106,374.6387,102,370.6387" style="stroke:#7A003C;stroke-width:1.0;"/><line style="stroke:#7A003C;stroke-width:1.0;stroke-dasharray:2.0,2.0;" x1="100" x2="271" y1="370.6387" y2="370.6387"/><text fill="#000000" font-family="sans-serif" font-size="13" lengthAdjust="spacing" textLength="10" x="112" y="365.8965">w</text><polygon fill="#7A003C" points="11,380.6387,1,384.6387,11,388.6387,7,384.6387" style="stroke:#7A003C;stroke-width:1.0;"/><line style="stroke:#7A003C;stroke-width:1.0;stroke-dasharray:2.0,2.0;" x1="5" x2="89" y1="384.6387" y2="384.6387"/><!--SRC=[TK-nRiCW4DtlAowP7AbrbOmUsgbZ9eyT8eHFDH861ET6blBn0Sm0Qdl3tJlnthl7GHcfrucmVtFhell0coO0iR8LajMFO49h09pmhAHomZ0URmDUXJ975263zfLdkWgMSoB5KLWHjRGWhIS_u9Zck0Mc9LFpxW6-Nj-p-O1Bx9tmt-44WB6afnHhzyHIYOfPaa_ph48Ns9zVCFPBKLRgSWQhojBaCPPesUJKS3pnwWrK4FwuxhJOAg6srk5X_t2lmgUPQFfeR7_VpkpEdV7nG7TfGzGfKf6Pu5-ZkpA6V9Lc5-CTccK7Jm00]--></g></svg>