<?xml version="1.0" encoding="us-ascii" standalone="no"?><svg xmlns="http://www.w3.org/2000/svg" xmlns:xlink="http://www.w3.org/1999/xlink" contentStyleType="text/css" height="555px" preserveAspectRatio="none" style="width:829px;height:555px;background:#FFFFFF;" version="1.1" viewBox="0 0 829 555" width="829px" zoomAndPan="magnify"><defs/><g><!--class Main--><g id="elem_Main"><rect codeLine="2" fill="#FEECCD" height="72.9766" id="Main" rx="5" ry="5" style="stroke:#7A003C;stroke-width:1.0;" width="295" x="7" y="186.82"/><ellipse cx="133.75" cy="202.82" fill="#ADD1B2" rx="11" ry="11" style="stroke:#181818;stroke-width:1.0;"/><path d="M136.2231,208.9631 Q135.6421,209.2619 135.0029,209.4113 Q134.3638,209.5607 133.6582,209.5607 Q131.1514,209.5607 129.8315,207.9089 Q128.5117,206.257 128.5117,203.1359 Q128.5117,200.0065 129.8315,198.3547 Q131.1514,196.7028 133.6582,196.7028 Q134.3638,196.7028 135.0112,196.8522 Q135.6587,197.0016 136.2231,197.3005 L136.2231,200.0231 Q135.5923,199.4421 134.9988,199.1723 Q134.4053,198.9025 133.7744,198.9025 Q132.4297,198.9025 131.7449,199.9692 Q131.0601,201.0358 131.0601,203.1359 Q131.0601,205.2277 131.7449,206.2944 Q132.4297,207.361 133.7744,207.361 Q134.4053,207.361 134.9988,207.0912 Q135.5923,206.8215 136.2231,206.2404 Z " fill="#000000"/><text fill="#000000" font-family="sans-serif" font-size="14" lengthAdjust="spacing" textLength="33" x="154.25" y="208.111">Main</text><line style="stroke:#7A003C;stroke-width:1.0;" x1="8" x2="301" y1="218.82" y2="218.82"/><ellipse cx="18" cy="232.5641" fill="#84BE84" rx="3" ry="3" style="stroke:#038048;stroke-width:1.0;"/><text fill="#000000" font-family="sans-serif" font-size="14" lengthAdjust="spacing" text-decoration="underline" textLength="133" x="27" y="236.3552">main(args: String[])</text><ellipse cx="18" cy="249.0524" fill="#84BE84" rx="3" ry="3" style="stroke:#038048;stroke-width:1.0;"/><text fill="#000000" font-family="sans-serif" font-size="14" lengthAdjust="spacing" text-decoration="underline" textLength="269" x="27" y="252.8434">configure(args: String[]): Configuration</text></g><!--class Configuration--><g id="elem_Configuration"><rect codeLine="7" fill="#FEECCD" height="98.0859" id="Configuration" rx="5" ry="5" style="stroke:#7A003C;stroke-width:1.0;" width="160" x="74.5" y="7"/><ellipse cx="103.9" cy="27.3105" fill="#ADD1B2" rx="11" ry="11" style="stroke:#181818;stroke-width:1.0;"/><path d="M106.3731,33.4536 Q105.7921,33.7524 105.1529,33.9019 Q104.5138,34.0513 103.8082,34.0513 Q101.3014,34.0513 99.9815,32.3994 Q98.6617,30.7476 98.6617,27.6265 Q98.6617,24.4971 99.9815,22.8452 Q101.3014,21.1934 103.8082,21.1934 Q104.5138,21.1934 105.1612,21.3428 Q105.8087,21.4922 106.3731,21.791 L106.3731,24.5137 Q105.7423,23.9326 105.1488,23.6628 Q104.5553,23.3931 103.9244,23.3931 Q102.5797,23.3931 101.8949,24.4597 Q101.2101,25.5264 101.2101,27.6265 Q101.2101,29.7183 101.8949,30.7849 Q102.5797,31.8516 103.9244,31.8516 Q104.5553,31.8516 105.1488,31.5818 Q105.7423,31.312 106.3731,30.731 Z " fill="#000000"/><text fill="#000000" font-family="sans-serif" font-size="12" font-style="italic" lengthAdjust="spacing" textLength="73" x="132.6" y="23.6016">&#171;immutable&#187;</text><text fill="#000000" font-family="sans-serif" font-size="14" lengthAdjust="spacing" textLength="96" x="121.1" y="39.668">Configuration</text><line style="stroke:#7A003C;stroke-width:1.0;" x1="75.5" x2="233.5" y1="47.6211" y2="47.6211"/><ellipse cx="85.5" cy="61.3652" fill="none" rx="3" ry="3" style="stroke:#038048;stroke-width:1.0;"/><text fill="#000000" font-family="sans-serif" font-size="14" lengthAdjust="spacing" textLength="134" x="94.5" y="65.1563">p1Strength: Integer</text><ellipse cx="85.5" cy="77.8535" fill="none" rx="3" ry="3" style="stroke:#038048;stroke-width:1.0;"/><text fill="#000000" font-family="sans-serif" font-size="14" lengthAdjust="spacing" textLength="129" x="94.5" y="81.6445">p2Strengh: Integer</text><ellipse cx="85.5" cy="94.3418" fill="none" rx="3" ry="3" style="stroke:#038048;stroke-width:1.0;"/><text fill="#000000" font-family="sans-serif" font-size="14" lengthAdjust="spacing" textLength="134" x="94.5" y="98.1328">scoreSystem: String</text></g><!--class Player--><g id="elem_Player"><rect codeLine="15" fill="#FEECCD" height="97.4648" id="Player" rx="5" ry="5" style="stroke:#7A003C;stroke-width:1.0;" width="206" x="481.5" y="7.31"/><ellipse cx="559.75" cy="23.31" fill="#ADD1B2" rx="11" ry="11" style="stroke:#181818;stroke-width:1.0;"/><path d="M562.2231,29.4531 Q561.6421,29.7519 561.0029,29.9013 Q560.3638,30.0507 559.6582,30.0507 Q557.1514,30.0507 555.8315,28.3989 Q554.5117,26.747 554.5117,23.6259 Q554.5117,20.4965 555.8315,18.8447 Q557.1514,17.1928 559.6582,17.1928 Q560.3638,17.1928 561.0112,17.3422 Q561.6587,17.4916 562.2231,17.7905 L562.2231,20.5131 Q561.5923,19.9321 560.9988,19.6623 Q560.4053,19.3925 559.7744,19.3925 Q558.4297,19.3925 557.7449,20.4592 Q557.0601,21.5258 557.0601,23.6259 Q557.0601,25.7177 557.7449,26.7844 Q558.4297,27.851 559.7744,27.851 Q560.4053,27.851 560.9988,27.5812 Q561.5923,27.3115 562.2231,26.7304 Z " fill="#000000"/><text fill="#000000" font-family="sans-serif" font-size="14" lengthAdjust="spacing" textLength="41" x="580.25" y="28.601">Player</text><line style="stroke:#7A003C;stroke-width:1.0;" x1="482.5" x2="686.5" y1="39.31" y2="39.31"/><rect fill="none" height="6" style="stroke:#C82930;stroke-width:1.0;" width="6" x="489.5" y="50.0541"/><text fill="#000000" font-family="sans-serif" font-size="14" lengthAdjust="spacing" textLength="87" x="501.5" y="56.8452">name: String</text><rect fill="none" height="6" style="stroke:#C82930;stroke-width:1.0;" width="6" x="489.5" y="66.5424"/><text fill="#000000" font-family="sans-serif" font-size="14" lengthAdjust="spacing" textLength="115" x="501.5" y="73.3334">strength: Integer</text><line style="stroke:#7A003C;stroke-width:1.0;" x1="482.5" x2="686.5" y1="80.2866" y2="80.2866"/><ellipse cx="492.5" cy="94.0307" fill="#84BE84" rx="3" ry="3" style="stroke:#038048;stroke-width:1.0;"/><text fill="#000000" font-family="sans-serif" font-size="14" lengthAdjust="spacing" textLength="180" x="501.5" y="97.8217">equals(o: Object): boolean</text></g><!--class Match--><g id="elem_Match"><rect codeLine="21" fill="#FEECCD" height="146.4414" id="Match" rx="5" ry="5" style="stroke:#7A003C;stroke-width:1.0;" width="475" x="347" y="150.09"/><ellipse cx="559.75" cy="166.09" fill="#ADD1B2" rx="11" ry="11" style="stroke:#181818;stroke-width:1.0;"/><path d="M562.2231,172.2331 Q561.6421,172.5319 561.0029,172.6813 Q560.3638,172.8307 559.6582,172.8307 Q557.1514,172.8307 555.8315,171.1789 Q554.5117,169.527 554.5117,166.4059 Q554.5117,163.2765 555.8315,161.6247 Q557.1514,159.9728 559.6582,159.9728 Q560.3638,159.9728 561.0112,160.1222 Q561.6587,160.2716 562.2231,160.5705 L562.2231,163.2931 Q561.5923,162.7121 560.9988,162.4423 Q560.4053,162.1725 559.7744,162.1725 Q558.4297,162.1725 557.7449,163.2392 Q557.0601,164.3058 557.0601,166.4059 Q557.0601,168.4977 557.7449,169.5644 Q558.4297,170.631 559.7744,170.631 Q560.4053,170.631 560.9988,170.3612 Q561.5923,170.0915 562.2231,169.5104 Z " fill="#000000"/><text fill="#000000" font-family="sans-serif" font-size="14" lengthAdjust="spacing" textLength="41" x="580.25" y="171.381">Match</text><line style="stroke:#7A003C;stroke-width:1.0;" x1="348" x2="821" y1="182.09" y2="182.09"/><ellipse cx="358" cy="195.8341" fill="none" rx="3" ry="3" style="stroke:#038048;stroke-width:1.0;"/><text fill="#000000" font-family="sans-serif" font-size="14" lengthAdjust="spacing" text-decoration="underline" textLength="111" x="367" y="199.6252">P1_NAME = "p1"</text><ellipse cx="358" cy="212.3224" fill="none" rx="3" ry="3" style="stroke:#038048;stroke-width:1.0;"/><text fill="#000000" font-family="sans-serif" font-size="14" lengthAdjust="spacing" text-decoration="underline" textLength="111" x="367" y="216.1134">P2_NAME = "p2"</text><line style="stroke:#7A003C;stroke-width:1.0;" x1="348" x2="821" y1="223.0666" y2="223.0666"/><ellipse cx="358" cy="236.8107" fill="#84BE84" rx="3" ry="3" style="stroke:#038048;stroke-width:1.0;"/><text fill="#000000" font-family="sans-serif" font-size="14" lengthAdjust="spacing" textLength="449" x="367" y="240.6017">this(strengthP1: Integer, strengthP2: Integer, scoreSystem: String)</text><line style="stroke:#7A003C;stroke-width:1.0;" x1="348" x2="821" y1="247.5548" y2="247.5548"/><ellipse cx="358" cy="261.299" fill="#84BE84" rx="3" ry="3" style="stroke:#038048;stroke-width:1.0;"/><text fill="#000000" font-family="sans-serif" font-size="14" lengthAdjust="spacing" textLength="87" x="367" y="265.09">play(): Player</text><line style="stroke:#7A003C;stroke-width:1.0;" x1="348" x2="821" y1="272.0431" y2="272.0431"/><rect fill="#F24D5C" height="6" style="stroke:#C82930;stroke-width:1.0;" width="6" x="355" y="282.7873"/><text fill="#000000" font-family="sans-serif" font-size="14" lengthAdjust="spacing" textLength="77" x="367" y="289.5783">playGame()</text></g><!--class ScoreSystem--><g id="elem_ScoreSystem"><rect codeLine="40" fill="#FEECCD" height="105.9531" id="ScoreSystem" rx="5" ry="5" style="stroke:#7A003C;stroke-width:1.0;" width="213" x="478" y="341.53"/><ellipse cx="537.25" cy="357.53" fill="#B4A7E5" rx="11" ry="11" style="stroke:#181818;stroke-width:1.0;"/><path d="M533.6777,353.7951 L533.6777,351.6369 L541.0571,351.6369 L541.0571,353.7951 L538.5918,353.7951 L538.5918,361.8718 L541.0571,361.8718 L541.0571,364.03 L533.6777,364.03 L533.6777,361.8718 L536.1431,361.8718 L536.1431,353.7951 Z " fill="#000000"/><text fill="#000000" font-family="sans-serif" font-size="14" font-style="italic" lengthAdjust="spacing" textLength="86" x="557.75" y="362.821">ScoreSystem</text><line style="stroke:#7A003C;stroke-width:1.0;" x1="479" x2="690" y1="373.53" y2="373.53"/><ellipse cx="489" cy="387.2741" fill="#84BE84" rx="3" ry="3" style="stroke:#038048;stroke-width:1.0;"/><text fill="#000000" font-family="sans-serif" font-size="14" lengthAdjust="spacing" textLength="128" x="498" y="391.0652">isEnded(): boolean</text><ellipse cx="489" cy="403.7624" fill="#84BE84" rx="3" ry="3" style="stroke:#038048;stroke-width:1.0;"/><text fill="#000000" font-family="sans-serif" font-size="14" lengthAdjust="spacing" textLength="187" x="498" y="407.5534">winner(): Optional&lt;Player&gt;</text><ellipse cx="489" cy="420.2507" fill="#84BE84" rx="3" ry="3" style="stroke:#038048;stroke-width:1.0;"/><text fill="#000000" font-family="sans-serif" font-size="14" lengthAdjust="spacing" textLength="105" x="498" y="424.0417">score(p: Player)</text><ellipse cx="489" cy="436.739" fill="#84BE84" rx="3" ry="3" style="stroke:#038048;stroke-width:1.0;"/><text fill="#000000" font-family="sans-serif" font-size="14" lengthAdjust="spacing" textLength="100" x="498" y="440.53">status(): String</text></g><!--class StupidMVP--><g id="elem_StupidMVP"><rect codeLine="47" fill="#FEECCD" height="56.4883" id="StupidMVP" rx="5" ry="5" style="stroke:#7A003C;stroke-width:1.0;" width="203" x="483" y="492.48"/><ellipse cx="543.75" cy="508.48" fill="#ADD1B2" rx="11" ry="11" style="stroke:#181818;stroke-width:1.0;"/><path d="M546.2231,514.6231 Q545.6421,514.9219 545.0029,515.0713 Q544.3638,515.2207 543.6582,515.2207 Q541.1514,515.2207 539.8315,513.5689 Q538.5117,511.917 538.5117,508.7959 Q538.5117,505.6665 539.8315,504.0147 Q541.1514,502.3628 543.6582,502.3628 Q544.3638,502.3628 545.0112,502.5122 Q545.6587,502.6616 546.2231,502.9605 L546.2231,505.6831 Q545.5923,505.1021 544.9988,504.8323 Q544.4053,504.5625 543.7744,504.5625 Q542.4297,504.5625 541.7449,505.6292 Q541.0601,506.6958 541.0601,508.7959 Q541.0601,510.8877 541.7449,511.9544 Q542.4297,513.021 543.7744,513.021 Q544.4053,513.021 544.9988,512.7512 Q545.5923,512.4815 546.2231,511.9004 Z " fill="#000000"/><text fill="#000000" font-family="sans-serif" font-size="14" lengthAdjust="spacing" textLength="73" x="564.25" y="513.771">StupidMVP</text><line style="stroke:#7A003C;stroke-width:1.0;" x1="484" x2="685" y1="524.48" y2="524.48"/><ellipse cx="494" cy="538.2241" fill="#84BE84" rx="3" ry="3" style="stroke:#038048;stroke-width:1.0;"/><text fill="#000000" font-family="sans-serif" font-size="14" lengthAdjust="spacing" textLength="177" x="503" y="542.0152">this(p1: Player, p2: Player)</text></g><!--link Configuration to Main--><g id="link_Configuration_Main"><path codeLine="13" d="M154.5,111.29 C154.5,137.2 154.5,146.61 154.5,170.36 " fill="none" id="Configuration-Main" style="stroke:#7A003C;stroke-width:1.0;"/><polygon fill="#7A003C" points="154.5,105.29,150.5,114.29,154.5,110.29,158.5,114.29,154.5,105.29" style="stroke:#7A003C;stroke-width:1.0;"/><ellipse cx="154.5" cy="178.36" fill="#FFFFFF" rx="8" ry="8" style="stroke:#7A003C;stroke-width:1.0;"/><line style="stroke:#7A003C;stroke-width:1.0;" x1="154.5" x2="154.5" y1="170.36" y2="186.36"/><line style="stroke:#7A003C;stroke-width:1.0;" x1="162.5" x2="146.5" y1="178.36" y2="178.36"/></g><!--link Main to Match--><g id="link_Main_Match"><path codeLine="32" d="M302.28,223.31 C310.03,223.31 321.06,223.31 340.64,223.31 " fill="none" id="Main-to-Match" style="stroke:#7A003C;stroke-width:1.0;stroke-dasharray:7.0,7.0;"/><polygon fill="#7A003C" points="346.64,223.31,337.64,219.31,341.64,223.31,337.64,227.31,346.64,223.31" style="stroke:#7A003C;stroke-width:1.0;"/></g><!--link Player to Match--><g id="link_Player_Match"><path codeLine="34" d="M568.8764,110.8288 C567.6964,124.8388 567.5194,122.5128 567.8494,137.7028 " fill="none" id="Player-Match" style="stroke:#7A003C;stroke-width:1.0;"/><polygon fill="#7A003C" points="569.38,104.85,564.6388,113.4825,568.9604,109.8324,572.6105,114.154,569.38,104.85" style="stroke:#7A003C;stroke-width:1.0;"/><polygon fill="#7A003C" points="568.11,149.7,571.9787,143.6145,567.8494,137.7028,563.9806,143.7883,568.11,149.7" style="stroke:#7A003C;stroke-width:1.0;"/><text fill="#000000" font-family="sans-serif" font-size="13" lengthAdjust="spacing" textLength="46" x="518.0194" y="125.3584">player1</text></g><!--link Player to Match--><g id="link_Player_Match"><path codeLine="35" d="M600.8347,110.827 C602.0647,124.837 602.2485,122.513 601.9085,137.703 " fill="none" id="Player-Match-1" style="stroke:#7A003C;stroke-width:1.0;"/><polygon fill="#7A003C" points="600.31,104.85,597.1124,114.1653,600.7473,109.8308,605.0818,113.4657,600.31,104.85" style="stroke:#7A003C;stroke-width:1.0;"/><polygon fill="#7A003C" points="601.64,149.7,605.7733,143.791,601.9085,137.703,597.7753,143.612,601.64,149.7" style="stroke:#7A003C;stroke-width:1.0;"/><text fill="#000000" font-family="sans-serif" font-size="13" lengthAdjust="spacing" textLength="46" x="605.7677" y="125.3584">player2</text></g><!--link Match to ScoreSystem--><g id="link_Match_ScoreSystem"><path codeLine="38" d="M584.5,308.55 C584.5,323.55 584.5,321.08 584.5,335.2 " fill="none" id="Match-ScoreSystem" style="stroke:#7A003C;stroke-width:1.0;"/><polygon fill="#7A003C" points="584.5,296.55,580.5,302.55,584.5,308.55,588.5,302.55,584.5,296.55" style="stroke:#7A003C;stroke-width:1.0;"/><polygon fill="#7A003C" points="584.5,341.2,588.5,332.2,584.5,336.2,580.5,332.2,584.5,341.2" style="stroke:#7A003C;stroke-width:1.0;"/><text fill="#000000" font-family="sans-serif" font-size="13" lengthAdjust="spacing" textLength="39" x="542.8797" y="330.6183">scorer</text></g><!--reverse link ScoreSystem to StupidMVP--><g id="link_ScoreSystem_StupidMVP"><path d="M584.5,465.83 C584.5,481.08 584.5,479.13 584.5,492.2 " fill="none" id="ScoreSystem-backto-StupidMVP" style="stroke:#7A003C;stroke-width:1.0;stroke-dasharray:7.0,7.0;"/><polygon fill="none" points="584.5,447.83,578.5,465.83,590.5,465.83,584.5,447.83" style="stroke:#7A003C;stroke-width:1.0;"/></g><!--SRC=[TLBBQiCm4BphAxO-EG-dsCUG6ae9fOSqXa0lfHJ5sJWgignACYM4_7ibls8dhI-6cTNkpEpUCP7oSeSmkvTbpcVQ73cIb5EjOKMPW1C1-qtWf0qrB3r3Rb6VgapFOMCK4zdxn-Yw9Yt4dcMbmkl2EJmrb2qi13cJPjO0XiM2vNbfw9PZ77SIP6ZxeCZCOGulmc26gcMYchaXT5eet1ormRnLuMPUJGk2IMMs5PDmUaJLp0r0q1oxrpMa_n62toNbsY_ciDv-OMgiuMrHSAGzgojgqiDjhadu-VguMi83U3BqRjZemaOr6mHDaJamxRUAah3JDEra9b4VlCraD6mehN_VIgzpw7D1nJtRGFoHSrITo2okFH7I1EV9wXzwBjfnGmwvQC2vHYwKSH34u5K2bGURYr12c9MlzZJ5FjoboFHIx73dz_AkYHyc12g7hwLRDkMBMaZSln1VjcRRKtQvbzgzkrnDlRwDAINRhTuIOBdacACm-azDrLfas7QUsYkzJB7jo2y0]--></g></svg>